<?xml version="1.0" standalone="no"?>
<!DOCTYPE svg PUBLIC "-//W3C//DTD SVG 20010904//EN"
 "http://www.w3.org/TR/2001/REC-SVG-20010904/DTD/svg10.dtd">
<svg version="1.0" xmlns="http://www.w3.org/2000/svg"
 width="1617.000000pt" height="654.000000pt" viewBox="0 0 1617.000000 654.000000"
 preserveAspectRatio="xMidYMid meet">

<g transform="translate(0.000000,654.000000) scale(0.100000,-0.100000)"
fill="#000000" stroke="none">
<path d="M5455 6533 c-445 -29 -886 -208 -1236 -501 -149 -125 -285 -277 -397
-443 l-51 -77 -88 30 c-175 59 -405 107 -613 129 -117 12 -560 8 -592 -6 -17
-7 -18 -149 -18 -2786 0 -2638 1 -2780 18 -2787 9 -4 152 -7 317 -7 321 0 391
7 633 61 551 123 1073 427 1450 843 396 438 637 960 713 1546 15 115 15 -26
12 2248 l-3 1757 -47 -2 c-27 -1 -70 -3 -98 -5z"/>
<path d="M6853 6529 c-473 -61 -855 -437 -923 -908 -17 -111 -7 -311 19 -417
93 -377 391 -679 767 -781 89 -24 116 -27 274 -27 209 -1 293 17 459 95 235
111 399 273 511 503 205 423 112 927 -231 1251 -234 221 -557 326 -876 284z"/>
<path d="M10990 5673 c-486 -47 -869 -169 -1242 -396 -723 -440 -1191 -1149
-1325 -2007 -14 -90 -18 -175 -18 -395 0 -299 9 -387 61 -620 122 -547 430
-1079 839 -1447 657 -593 1505 -841 2370 -693 275 47 491 118 760 250 283 138
510 300 741 530 949 941 1102 2420 365 3527 -146 218 -287 382 -470 545 -525
468 -1187 718 -1883 711 -90 0 -179 -3 -198 -5z"/>
<path d="M6865 4370 c-294 -31 -589 -207 -755 -450 -51 -75 -105 -184 -135
-275 -56 -166 -55 -130 -55 -1917 l0 -1648 68 0 c354 1 803 144 1123 359 473
317 803 805 913 1351 39 195 41 239 41 950 0 614 -2 704 -17 770 -105 470
-475 807 -941 859 -105 12 -136 12 -242 1z"/>
<path d="M14909 2140 c-463 -84 -805 -426 -886 -885 -34 -197 -1 -446 86 -629
310 -663 1164 -830 1706 -334 244 223 376 579 336 905 -56 453 -363 807 -801
923 -67 18 -119 23 -240 26 -85 1 -176 -1 -201 -6z"/>
</g>
</svg>
